<svg width="206" height="53" viewBox="0 0 206 53" fill="none" xmlns="http://www.w3.org/2000/svg">
<g clip-path="url(#clip0_78_147)">
<path d="M4.05382 35.765C2.72924 30.4272 1.81128 23.3907 5.49546 19.8631C9.47536 16.0504 16.7944 18.2636 21.3658 19.1874C45.6949 24.1036 52.478 4.68042 88.2232 2.81435C88.2232 2.81435 106.164 1.85342 123.346 7.07965C127.683 8.40015 134.3 11.1714 136.056 12.0269C137.615 12.7894 139.001 13.521 140.196 14.1905C140.473 14.3455 122.835 2.62217 100.859 0.427523C97.4337 0.0865471 94.267 -0.037444 91.2728 0.00595288C87.5024 0.0617489 80.6762 0.359327 72.5685 2.2006C67.1285 3.43431 61.5283 5.69095 50.3279 10.198C42.0169 13.5396 38.0062 15.4676 31.2847 15.9884C27.0707 16.317 22.7828 16.0132 22.4563 15.9884C13.714 15.3437 9.91278 13.087 5.39689 15.4862C2.95103 16.7882 1.82976 18.4124 1.54636 18.8402C-1.23834 23.0931 -0.178673 29.6832 4.05382 35.7588V35.765Z" fill="#FCF0DE"/>
<path d="M205.926 38.617C205.858 36.0752 205.372 32.0021 202.889 28.1026C198.317 20.9111 190.013 19.0698 184.111 17.8547C174.678 15.908 167.076 16.8566 158.716 18.1213C132.846 22.0332 125.515 25.0896 108.659 25.5732C93.6386 26.0009 87.3977 23.9241 84.0585 19.386C81.3662 15.7221 81.1444 11.2584 81.3785 8.10901C81.9638 10.3037 83.1221 13.3724 85.6418 16.094C90.4781 21.3141 97.5877 22.2936 105.812 22.3804C118.491 22.5168 127.48 20.4585 137.159 18.5181C168.745 12.1945 177.691 13.1678 183.778 14.4574C197.381 17.3463 201.533 22.8825 203.024 25.3066C206.049 30.2414 206.154 35.5296 205.926 38.617Z" fill="#92181C"/>
<path d="M9.95593 49.1872H10.5227C11.4715 49.1872 11.8103 48.4433 12.0568 47.47L14.5026 37.5569H22.6473V49.1811H23.7809V52.9938H21.8895V50.8983H11.8473V52.9938H9.95593V49.1811V49.1872ZM20.7497 49.1872V39.2742H16.0182L13.8804 48.0403C13.788 48.4433 13.6524 48.8401 13.4984 49.1811H20.7497V49.1872Z" fill="#FCF0DE"/>
<path d="M27.0954 45.9449V50.8983H25.204V37.5569H32.5909C34.8827 37.5569 36.6817 39.4415 36.6817 41.7478C36.6817 44.054 34.8827 45.9387 32.5909 45.9387H27.0954V45.9449ZM34.8581 41.754C34.8581 40.3839 33.7614 39.2742 32.3937 39.2742H27.0893V44.2276H32.3937C33.7553 44.2276 34.8581 43.1241 34.8581 41.7478V41.754Z" fill="#FCF0DE"/>
<path d="M42.1093 45.9449L36.6755 37.5569H38.7948L43.169 44.302L47.5432 37.5569H49.6625L41.0065 50.8983H38.8872L42.1093 45.9449Z" fill="#FCF0DE"/>
<path d="M55.7618 44.2338L49.0958 37.5631H51.5786L57.0494 43.0311V37.5631H58.9408V43.0311L64.4116 37.5631H66.8944L60.2284 44.2338L66.8944 50.9046H64.4116L58.9408 45.4365V50.9046H57.0494V45.4365L51.5786 50.9046H49.0958L55.7618 44.2338Z" fill="#FCF0DE"/>
<path d="M68.0342 37.5631H78.1133V39.2804H69.9317V42.5228H75.5011C77.793 42.5228 79.5919 44.4074 79.5919 46.7137C79.5919 49.0199 77.793 50.9046 75.5011 50.9046H68.0403V37.5631H68.0342ZM77.7683 46.7137C77.7683 45.3436 76.6717 44.2338 75.304 44.2338H69.9256V49.1873H75.304C76.6655 49.1873 77.7683 48.0838 77.7683 46.7075V46.7137Z" fill="#FCF0DE"/>
<path d="M90.2871 48.0466H83.1837L81.9515 50.9046H79.9615L85.7404 37.5631H87.7304L93.5092 50.9046H91.5193L90.2871 48.0466ZM89.5293 46.3293L86.7446 39.8507L83.9415 46.3293H89.5293Z" fill="#FCF0DE"/>
<path d="M101.266 37.5631H103.157V43.3783H111.111V37.5631H113.002V50.9046H111.111V45.0894H103.157V50.9046H101.266V37.5631Z" fill="#FCF0DE"/>
<path d="M124.467 48.0466H117.364L116.132 50.9046H114.142L119.921 37.5631H121.911L127.69 50.9046H125.7L124.467 48.0466ZM123.71 46.3293L120.925 39.8507L118.122 46.3293H123.71Z" fill="#FCF0DE"/>
<path d="M130.715 45.9449V50.8983H128.823V37.5569H136.21C138.502 37.5569 140.301 39.4415 140.301 41.7478C140.301 44.054 138.502 45.9387 136.21 45.9387H130.715V45.9449ZM138.477 41.754C138.477 40.3839 137.381 39.2742 136.013 39.2742H130.708V44.2276H136.013C137.374 44.2276 138.477 43.1241 138.477 41.7478V41.754Z" fill="#FCF0DE"/>
<path d="M141.243 44.2338C141.243 40.3467 144.385 37.1849 148.248 37.1849C152.111 37.1849 155.253 40.3467 155.253 44.2338C155.253 48.121 152.111 51.2827 148.248 51.2827C144.385 51.2827 141.243 48.121 141.243 44.2338ZM148.248 49.5345C151.181 49.5345 153.362 47.191 153.362 44.2338C153.362 41.2766 151.181 38.9332 148.248 38.9332C145.316 38.9332 143.135 41.2766 143.135 44.2338C143.135 47.191 145.316 49.5345 148.248 49.5345Z" fill="#FCF0DE"/>
<path d="M154.686 49.1872H155.253C156.202 49.1872 156.541 48.4433 156.787 47.47L159.233 37.5569H167.378V49.1811H168.511V52.9938H166.62V50.8983H156.584V52.9938H154.693V49.1811L154.686 49.1872ZM165.48 49.1872V39.2742H160.743L158.605 48.0403C158.512 48.4433 158.377 48.8401 158.223 49.1811H165.474L165.48 49.1872Z" fill="#FCF0DE"/>
<path d="M169.171 44.2338C169.171 40.3467 172.313 37.1849 176.175 37.1849C180.038 37.1849 183.18 40.3467 183.18 44.2338C183.18 48.121 180.038 51.2827 176.175 51.2827C172.313 51.2827 169.171 48.121 169.171 44.2338ZM176.175 49.5345C179.108 49.5345 181.289 47.191 181.289 44.2338C181.289 41.2766 179.108 38.9332 176.175 38.9332C173.243 38.9332 171.062 41.2766 171.062 44.2338C171.062 47.191 173.237 49.5345 176.175 49.5345Z" fill="#FCF0DE"/>
<path d="M184.702 37.5631H192.317C194.381 37.5631 196.05 39.237 196.05 41.32C196.05 42.6715 195.366 43.6821 194.325 44.2338C195.366 44.7856 196.05 45.7961 196.05 47.1476C196.05 49.2245 194.381 50.9046 192.317 50.9046H184.702V37.5631ZM186.593 39.2804V43.3783H192.126C193.259 43.3783 194.227 42.4608 194.227 41.32C194.227 40.1793 193.259 39.2804 192.126 39.2804H186.593ZM192.126 49.1935C193.259 49.1935 194.227 48.3007 194.227 47.1538C194.227 46.0069 193.259 45.0956 192.126 45.0956H186.593V49.1935H192.126Z" fill="#FCF0DE"/>
</g>
<defs>
<clipPath id="clip0_78_147">
<rect width="206" height="53" fill="white"/>
</clipPath>
</defs>
</svg>
