<svg width="30" height="22" viewBox="0 0 30 22" fill="none" xmlns="http://www.w3.org/2000/svg">
<path d="M0 3.18446C0 3.07509 0.0126493 2.91944 0.0758959 2.73855C0.13071 2.57869 0.202389 2.45669 0.261419 2.37256L9.15811 11.4297C6.26563 14.3744 3.28039 17.4075 0.261419 20.4826C0.202389 20.4069 0.134926 20.2933 0.0801124 20.1461C0.00843288 19.9526 0 19.7843 0 19.6707L0 3.18446Z" fill="#FCF0DE"/>
<path d="M1.47156 1.10639C1.54324 1.07694 1.6613 1.03488 1.81309 0.997014C2.24317 0.887639 2.58891 0.908673 2.66903 0.912879C3.13705 0.929706 8.55096 0.912879 16.0478 0.891846C22.305 0.900259 26.8545 0.912879 27.3352 0.912879C27.4364 0.912879 27.7273 0.912879 28.0942 0.988601C28.2923 1.03067 28.4441 1.07694 28.5369 1.1106C28.4863 1.16528 28.3893 1.26625 28.2712 1.39666C24.6029 5.30052 20.8419 9.0277 16.9965 12.5908C16.8405 12.7381 16.1532 13.3607 15.078 13.3817C13.9564 13.4069 13.2228 12.7633 13.071 12.6287C9.11175 9.11184 5.30852 5.351 1.67816 1.33355C1.6107 1.25783 1.53902 1.18211 1.47156 1.10218V1.10639Z" fill="#FCF0DE"/>
<path d="M1.64026 21.7447C4.60442 18.7285 7.58122 15.6996 10.5833 12.6455C11.7766 14.3703 13.7752 15.2958 15.7442 15.0181C17.9958 14.7026 19.2017 12.9568 19.3957 12.6665C22.3809 15.708 25.3662 18.7495 28.3514 21.791C28.052 21.8373 27.6473 21.9466 27.2383 21.9466C25.1596 21.9635 23.0809 21.955 21.0021 21.955C14.9389 21.955 8.87567 21.955 2.81665 21.955C2.37392 21.955 1.94806 21.9004 1.64448 21.7447H1.64026Z" fill="#FCF0DE"/>
<path d="M29.7091 2.38501C29.9368 2.82251 30 3.23057 30 3.65124C30 6.12481 30 8.60259 30 11.0762C30 13.7769 30 16.4734 30 19.1742C30 19.6074 29.941 20.0197 29.7091 20.4698C26.707 17.4157 23.7302 14.3869 20.8251 11.4253C23.7302 8.47218 26.707 5.43911 29.7091 2.38501Z" fill="#FCF0DE"/>
</svg>
