<svg width="30" height="31" viewBox="0 0 30 31" fill="none" xmlns="http://www.w3.org/2000/svg">
<path d="M0 6.12306C0.0657694 5.77761 0.121421 5.43215 0.202368 5.09177C0.465446 3.97412 1.03207 3.03427 1.86684 2.24684C2.44865 1.69817 3.01527 1.12918 3.59708 0.575436C4.42173 -0.201841 5.51957 -0.191681 6.31892 0.605918C7.89738 2.18079 9.47079 3.76075 11.0391 5.34579C11.2769 5.58456 11.5501 6.0621 11.6412 6.70729C11.7373 7.35756 11.5552 7.88083 11.4742 8.1196C11.2516 8.75463 10.8975 9.14073 10.2803 9.80624C9.98177 10.1263 9.54162 10.5581 8.95476 11.0204C8.99523 11.4624 9.08124 12.1127 9.31396 12.8595C9.94636 14.9119 11.1606 16.1565 12.5468 17.5435C13.9128 18.9151 15.1523 20.1242 17.1861 20.7643C17.9196 20.9929 18.5571 21.0844 18.9871 21.1301C19.5183 20.424 20.0344 19.9108 20.4239 19.5552C20.94 19.0878 21.2334 18.8237 21.7393 18.6255C21.9518 18.5392 22.5741 18.3004 23.338 18.4274C23.9704 18.5341 24.4359 18.7983 24.6736 19.037C26.2521 20.6119 27.8255 22.1919 29.3939 23.7769C30.1831 24.5694 30.2033 25.6769 29.4445 26.4898C28.7817 27.1959 28.1088 27.8919 27.4208 28.5727C26.5152 29.4668 25.392 29.8986 24.1525 30.0612C24.0665 30.0713 23.9856 30.1018 23.9046 30.1171H22.4982C22.0783 30.051 21.6533 29.9951 21.2334 29.9088C19.2401 29.5125 17.3985 28.72 15.6632 27.6887C10.3258 24.5288 6.05078 20.2715 2.77749 14.9983C1.63917 13.1643 0.743701 11.2084 0.273196 9.08484C0.166954 8.59206 0.0961267 8.08912 0.0101205 7.59125V6.12306H0Z" fill="#FCF0DE"/>
</svg>
